<svg width="960" height="220" viewBox="0 0 960 220" xmlns="http://www.w3.org/2000/svg">
  <defs>
    <linearGradient id="bg" x1="0" y1="0" x2="960" y2="220" gradientUnits="userSpaceOnUse">
      <stop offset="0" stop-color="#0a0e14"/>
      <stop offset="1" stop-color="#111726"/>
    </linearGradient>
  </defs>
  <rect width="960" height="220" rx="20" fill="url(#bg)"/>

  <!-- subtle sprocket strip, echoes the in-app "reel" motif -->
  <g fill="#ffffff" opacity="0.06">
    <circle cx="24" cy="24" r="4"/><circle cx="48" cy="24" r="4"/><circle cx="72" cy="24" r="4"/>
    <circle cx="24" cy="196" r="4"/><circle cx="48" cy="196" r="4"/><circle cx="72" cy="196" r="4"/>
    <circle cx="888" cy="24" r="4"/><circle cx="912" cy="24" r="4"/><circle cx="936" cy="24" r="4"/>
    <circle cx="888" cy="196" r="4"/><circle cx="912" cy="196" r="4"/><circle cx="936" cy="196" r="4"/>
  </g>

  <!-- logo tile -->
  <g transform="translate(100,60)">
    <rect x="0" y="0" width="100" height="100" rx="26" fill="#0071e3"/>
    <path d="M39 31L66 50L39 69V31Z" fill="#ffffff"/>
    <path d="M24 50H31" stroke="#ffffff" stroke-width="6" stroke-linecap="round" opacity="0.55"/>
  </g>

  <!-- wordmark -->
  <text x="240" y="112" font-family="Arial, Helvetica, sans-serif" font-size="52" font-weight="700" fill="#ffffff">
    Video<tspan fill="#3b9dff">Forge</tspan>
  </text>
  <text x="242" y="146" font-family="Arial, Helvetica, sans-serif" font-size="18" fill="#8a94a6">
    A local, ffmpeg-powered desktop video editor — Electron · React · TypeScript
  </text>
</svg>
